<svg width="137" height="100" viewBox="0 0 137 100" fill="none" xmlns="http://www.w3.org/2000/svg">
<path d="M133.659 3.54573C131.912 1.79856 129.548 0.822199 127.03 0.822199C124.512 0.822199 122.148 1.79856 120.401 3.54573C118.654 5.29291 117.677 7.65673 117.677 10.1747C117.677 12.6927 118.654 15.0565 120.401 16.8037C122.148 18.5509 124.512 19.5272 127.03 19.5272C129.548 19.5272 131.912 18.5509 133.659 16.8037C135.406 15.0565 136.382 12.6927 136.382 10.1747C136.434 7.70812 135.457 5.3443 133.659 3.54573ZM127.03 17.2148C123.176 17.2148 120.041 14.0802 120.041 10.2261C120.041 6.37204 123.176 3.23741 127.03 3.23741C130.884 3.23741 134.019 6.37204 134.019 10.2261C134.019 14.0802 130.884 17.2148 127.03 17.2148ZM129.753 11.0997C129.548 11.408 129.085 11.6136 128.674 11.6136C127.955 11.6136 127.441 11.2025 127.441 10.3803C127.441 9.55807 127.955 9.14697 128.674 9.14697C129.034 9.14697 129.496 9.35252 129.753 9.66084V11.0997ZM131.501 12.7441V7.70812H129.753V8.37616C129.548 7.45118 128.006 7.55396 127.698 7.55396L124.923 7.60534V7.39979C124.923 6.98869 125.18 6.73176 125.54 6.73176C125.694 6.73176 125.848 6.78314 126.002 6.83453L126.31 5.65262C126.053 5.49846 125.642 5.39568 125.128 5.39568C123.998 5.39568 123.124 6.1665 123.124 7.34841V7.60534H122.199V9.14697H123.124V13.1552H124.872V9.14697H125.745C125.642 9.50668 125.591 9.91778 125.591 10.3803C125.591 12.2302 126.67 13.1552 128.058 13.1552C128.674 13.1552 129.239 12.8983 129.702 12.333V12.7441C129.702 13.7718 128.828 14.0802 128.263 14.0802C127.595 14.0802 126.978 13.8746 126.567 13.4121L125.797 14.6968C126.516 15.2621 127.287 15.519 128.263 15.519C129.651 15.5704 131.501 15.0051 131.501 12.7441ZM106.321 65.9815V100H57.1943C56.8859 100 56.629 100 56.3207 100C28.7256 100 6.32066 77.6465 6.32066 50C6.32066 45.7348 6.88592 41.5725 7.86228 37.5642C8.83864 32.1172 4.47071 23.3813 0 17.6259C7.24563 18.4481 17.8314 17.8828 21.0689 14.594C30.1131 5.54985 42.6002 0 56.372 0C69.5272 0 81.5005 5.08736 90.3905 13.4121L91.11 14.5427L57.554 48.15C56.7831 48.9209 56.7831 50.1028 57.554 50.8736C57.9137 51.2333 58.4275 51.4388 58.9414 51.4388C59.4553 51.4388 59.9178 51.2333 60.3289 50.8736L108.428 2.77492C124.306 20.9661 123.638 48.6125 106.321 65.9815ZM35.4574 30.6269C39.3628 30.6269 42.4974 27.4923 42.4974 23.5868C42.4974 19.6814 39.3628 16.5468 35.4574 16.5468C34.1213 16.5468 32.9394 16.9065 31.8602 17.5231C31.9116 17.5231 31.963 17.5231 32.0144 17.5231C34.1213 17.5231 35.8171 19.2189 35.8171 21.3258C35.8171 23.4327 34.1213 25.1799 32.0144 25.1799C30.4214 25.1799 29.0339 24.2035 28.4687 22.816C28.4687 22.8674 28.4687 22.9188 28.4687 22.9702C28.4687 23.1244 28.4173 23.3299 28.4173 23.4841C28.4173 24.5118 28.6228 25.4882 28.9825 26.3618C30.1131 28.8798 32.5797 30.6269 35.4574 30.6269ZM49.6917 81.4491C49.6917 79.1881 48.3042 77.5951 45.3237 77.5951C43.1141 77.5951 41.5725 78.52 40.7503 79.3936V73.1757H36.5365V90.2878H40.7503V82.2713C41.2641 81.7061 42.0863 81.0894 43.2682 81.0894C44.6043 81.0894 45.4265 81.5519 45.4265 83.0935V90.2878H49.6403V81.4491H49.6917ZM63.7718 77.9034H59.5581V85.9198C59.0442 86.4851 58.2734 87.1017 57.0401 87.1017C55.6526 87.1017 54.8818 86.5879 54.8818 85.0976V77.9034H50.668V86.742C50.668 89.0031 52.0041 90.5961 54.9846 90.5961C57.1942 90.5961 58.7359 89.6711 59.5581 88.7975V90.2878H63.7718V77.9034ZM102.261 81.295C102.261 78.777 100.719 77.5951 98.3042 77.5951C96.2487 77.5951 94.5015 78.7256 93.7307 79.8047C93.1655 78.3659 91.8808 77.5951 89.9795 77.5951C87.9753 77.5951 86.3823 78.6228 85.7143 79.3422C85.6629 79.2908 85.6629 79.2395 85.6115 79.1881V79.1367H85.5601C84.9435 78.0575 83.7102 77.5437 82.1172 77.5437C81.6033 77.5437 81.0894 77.5951 80.6269 77.7492C79.0339 78.0575 77.7492 78.9825 77.1326 79.8561C76.5673 78.4173 75.2826 77.6465 73.3813 77.6465C71.3258 77.6465 69.63 78.7256 69.0648 79.445V77.9548H64.851V90.3392H69.0648V82.3227C69.4759 81.8088 70.298 81.1408 71.4286 81.1408C72.7133 81.1408 73.1758 81.8602 73.1758 82.7852V90.3392H77.3895V82.3227C77.8006 81.8088 78.6228 81.1408 79.7533 81.1408C80.7811 81.1408 81.295 81.6033 81.4491 82.2713V90.3392H81.5005H85.6629H85.7143V82.2199C86.1768 81.7061 86.9476 81.038 88.0267 81.038C89.3114 81.038 89.7739 81.7574 89.7739 82.6824V90.2364H93.9877V82.2199C94.3988 81.7061 95.221 81.038 96.3515 81.038C97.5848 81.038 98.0987 81.7574 98.0987 82.6824V90.2364H102.261V81.295Z" fill="#FF6C00"/>
</svg>
