<?xml version="1.0" encoding="utf-8"?>
<svg version="1.1" id="Layer_1" xmlns="http://www.w3.org/2000/svg" xmlns:xlink="http://www.w3.org/1999/xlink" x="0px" y="0px"
	 width="147.6px" height="41.1px" viewBox="0 0 147.6 41.1" enable-background="new 0 0 147.6 41.1" xml:space="preserve">
<g>
	<g>
		<g>
			<path fill="#333333" d="M83.4,30.9c1.4,0,2.5,0.9,2.5,2v1.5c0,0.2-0.2,0.4-0.5,0.4c-7.4,0-8.5,0-8.5,0s0,0.3,0,0.8
				c0,0.7,0.7,1.2,1.6,1.2h6.6c0.3,0,0.5,0.2,0.5,0.4c0,0.2-0.2,0.4-0.5,0.4h-6.6c-1.4,0-2.5-0.9-2.5-2v-2.6c0-1.1,1.1-2,2.5-2H83.4
				L83.4,30.9z M76.9,34c0.7,0,7.2,0,8,0c0,0,0-0.4,0-1.1c0-0.7-0.7-1.3-1.6-1.3h-4.9c-0.9,0-1.6,0.6-1.6,1.3
				C76.9,33.5,76.9,34,76.9,34z"/>
			<path fill="#333333" d="M98.3,31.7c0,0-6.2,4.2-7.8,5.2c1.9,0,7.5,0,7.5,0c0.2,0,0.5,0.2,0.5,0.4c0,0.2-0.2,0.4-0.5,0.4h-8.8
				c-0.2,0-0.5-0.2-0.5-0.3c0-0.1,0.1-0.3,0.2-0.3c0,0,6.2-4.1,7.8-5.2c-1.9,0-7.5,0-7.5,0c-0.3,0-0.5-0.2-0.5-0.4
				c0-0.2,0.2-0.4,0.5-0.4H98C98.4,30.9,98.5,31.5,98.3,31.7z"/>
			<path fill="#333333" d="M100.9,29.7c0-0.2,0.2-0.4,0.5-0.4c0.3,0,0.5,0.2,0.5,0.4v0.4c0,0.2-0.2,0.4-0.5,0.4
				c-0.3,0-0.5-0.2-0.5-0.4V29.7z M101.8,31.3v5.9c0,0.2-0.2,0.4-0.5,0.4c-0.3,0-0.5-0.2-0.5-0.4v-5.9c0-0.2,0.2-0.4,0.5-0.4
				C101.6,30.9,101.8,31.1,101.8,31.3z"/>
			<path fill="#333333" d="M105.5,34.3c-0.3,0-0.5-0.2-0.5-0.4c0-0.2,0.2-0.4,0.5-0.4h3.3c0.3,0,0.5,0.2,0.5,0.4
				c0,0.2-0.2,0.4-0.5,0.4H105.5z"/>
			<path fill="#333333" d="M112.2,41.1c-0.3,0-0.5-0.2-0.5-0.4V33c0-1.1,1.1-2,2.5-2h4.9c1.4,0,2.5,0.9,2.5,2v2.6c0,1.1-1.1,2-2.5,2
				c-6.9,0-6.4,0-6.4,0s0,1.3,0,3.2C112.7,41,112.4,41.1,112.2,41.1z M120.7,33c0-0.7-0.7-1.3-1.6-1.3h-4.9c-0.9,0-1.6,0.6-1.6,1.3
				c0,1.7,0,3.8,0,3.8s-0.4,0,6.4,0c0.9,0,1.6-0.6,1.6-1.3L120.7,33L120.7,33z"/>
			<path fill="#333333" d="M131.9,30.9c1.4,0,2.5,0.9,2.5,2v2.7c0,1.1-1.1,2-2.4,2H127c-1.4,0-2.5-0.9-2.5-2c0-1.1,1.1-2,2.5-2
				c5.8,0,6.5,0,6.5,0s0-0.3,0-0.7c0-0.7-0.7-1.2-1.5-1.2h-6.8c-0.3,0-0.5-0.2-0.5-0.4c0-0.2,0.2-0.4,0.5-0.4L131.9,30.9L131.9,30.9
				z M127,36.8h4.9c0.8,0,1.5-0.5,1.5-1.2c0-0.6,0-1.2,0-1.2s-0.7,0-6.5,0c-0.9,0-1.5,0.6-1.5,1.2C125.5,36.3,126.2,36.8,127,36.8z"
				/>
			<path fill="#333333" d="M146.5,39.1c0,1.1-1.1,2-2.5,2h-6c-0.3,0-0.5-0.2-0.5-0.4c0-0.2,0.2-0.4,0.5-0.4h6c0.9,0,1.6-0.6,1.6-1.3
				v-2c-0.4,0.3-1,0.4-1.6,0.4h-4.7c-1.4,0-2.5-0.9-2.5-2v-4.2c0-0.2,0.2-0.4,0.5-0.4c0.3,0,0.5,0.2,0.5,0.4v4.2
				c0,0.7,0.7,1.2,1.6,1.2h4.7c0.9,0,1.6-0.6,1.6-1.2v-4.2c0-0.2,0.2-0.4,0.5-0.4c0.3,0,0.5,0.2,0.5,0.4L146.5,39.1L146.5,39.1z"/>
		</g>
		<g>
			<path d="M60.6,14.5c0.3,0,0.6,0.2,0.6,0.5c0,0.3-0.3,0.5-0.6,0.5h-9.2c-1.2,0-2.1,0.8-2.1,1.7v3.5c0,1,1,1.7,2.1,1.7h9.1
				c0.4,0,0.6,0.2,0.6,0.5c0,0.3-0.3,0.5-0.6,0.5h-9.1c-1.9,0-3.4-1.2-3.4-2.8v-3.5c0-1.5,1.5-2.8,3.4-2.8H60.6z"/>
			<path d="M73.6,14.5c1.9,0,3.4,1.2,3.4,2.7v2c0,0.3-0.3,0.5-0.7,0.5c-10.1,0-11.6,0-11.6,0s0,0.5,0,1.1c0,0.9,1,1.7,2.1,1.7h9
				c0.3,0,0.6,0.2,0.6,0.5c0,0.3-0.3,0.5-0.6,0.5h-9c-1.9,0-3.4-1.2-3.4-2.7v-3.6c0-1.5,1.5-2.7,3.4-2.7L73.6,14.5L73.6,14.5z
				 M64.8,18.8c1,0,9.8,0,10.9,0c0,0,0-0.6,0-1.5c0-0.9-1-1.7-2.1-1.7H67c-1.2,0-2.1,0.8-2.1,1.7C64.8,18,64.8,18.8,64.8,18.8z"/>
			<path d="M88.2,14.5c1.8,0,3.3,1.2,3.3,2.7c0,0.3-0.3,0.5-0.6,0.5c-0.3,0-0.6-0.2-0.6-0.5c0-0.9-0.9-1.6-2.1-1.6h-5.8
				c-1.1,0-2.1,0.7-2.1,1.6v5.9c0,0.3-0.3,0.5-0.6,0.5c-0.3,0-0.6-0.2-0.6-0.5v-5.9c0-1.5,1.5-2.7,3.3-2.7H88.2z"/>
			<path d="M99.1,22.5c0.4,0,0.6,0.2,0.6,0.5c0,0.3-0.3,0.5-0.6,0.5h-2.3c-1.9,0-3.4-1.2-3.4-2.7V10.2c0-0.3,0.3-0.5,0.7-0.5
				c0.3,0,0.6,0.2,0.6,0.5v4.3H99c0.4,0,0.7,0.2,0.7,0.5c0,0.3-0.3,0.5-0.7,0.5h-4.4v5.3c0,0.9,1,1.7,2.1,1.7H99.1z"/>
			<path d="M112.2,14.5c1.9,0,3.4,1.2,3.4,2.7v2c0,0.3-0.3,0.5-0.6,0.5c-10.1,0-11.6,0-11.6,0s0,0.5,0,1.1c0,0.9,1,1.7,2.1,1.7h9
				c0.3,0,0.6,0.2,0.6,0.5c0,0.3-0.3,0.5-0.6,0.5h-9c-1.9,0-3.4-1.2-3.4-2.7v-3.6c0-1.5,1.5-2.7,3.4-2.7L112.2,14.5L112.2,14.5z
				 M103.4,18.8c1,0,9.8,0,10.9,0c0,0,0-0.6,0-1.5c0-0.9-1-1.7-2.1-1.7h-6.7c-1.2,0-2.1,0.8-2.1,1.7C103.4,18,103.4,18.8,103.4,18.8
				z"/>
			<path d="M119.2,28.4c-0.4,0-0.7-0.2-0.7-0.5c0-0.3,0.3-0.5,0.7-0.5h8.6c1.2,0,2.1-0.8,2.1-1.7v-2.2h-8.9c-1.9,0-3.4-1.2-3.4-2.7
				v-3.5c0-1.5,1.5-2.8,3.4-2.8h6.8c1.9,0,3.4,1.2,3.4,2.8v8.4c0,1.5-1.5,2.7-3.4,2.7H119.2L119.2,28.4z M129.9,22.5v-5.2
				c0-1-1-1.7-2.1-1.7h-6.8c-1.2,0-2.1,0.8-2.1,1.7v3.5c0,1,1,1.7,2.1,1.7H129.9z"/>
			<path d="M147.6,25.7c0,1.5-1.5,2.7-3.4,2.7H136c-0.4,0-0.7-0.2-0.7-0.5c0-0.3,0.3-0.5,0.7-0.5h8.2c1.2,0,2.1-0.8,2.1-1.7V23
				c-0.6,0.4-1.3,0.6-2.1,0.6h-6.5c-1.9,0-3.4-1.2-3.4-2.7v-5.8c0-0.3,0.3-0.5,0.6-0.5c0.3,0,0.6,0.2,0.6,0.5v5.8
				c0,0.9,1,1.7,2.1,1.7h6.5c1.2,0,2.1-0.8,2.1-1.7v-5.8c0-0.3,0.3-0.5,0.6-0.5c0.3,0,0.6,0.2,0.6,0.5L147.6,25.7L147.6,25.7z"/>
		</g>
	</g>
	<g>
		<g>
			<g>

					<radialGradient id="SVGID_1_" cx="6.623" cy="566.7495" r="6.2877" gradientTransform="matrix(1 0 0 -1 4.003906e-002 594.4951)" gradientUnits="userSpaceOnUse">
					<stop  offset="0" style="stop-color:#029EDA"/>
					<stop  offset="1" style="stop-color:#0272B7"/>
				</radialGradient>
				<path fill="url(#SVGID_1_)" d="M4.4,28.9c-0.5,0.3-1.3,0.3-1.7,0l-1.8-1c-0.5-0.3-0.9-1-0.9-1.5v-2.1c0-0.6,0.4-1.2,0.9-1.5
					l1.8-1c0.5-0.3,1.3-0.3,1.7,0l1.8,1C6.6,23.1,7,23.8,7,24.3v2.1c0,0.5-0.4,1.2-0.9,1.5L4.4,28.9z"/>
			</g>
			<g>
				<g opacity="0.33">

						<linearGradient id="SVGID_2_" gradientUnits="userSpaceOnUse" x1="2.3579" y1="572.3579" x2="3.5545" y2="570.121" gradientTransform="matrix(1 0 0 -1 4.003906e-002 594.4951)">
						<stop  offset="0" style="stop-color:#000000"/>
						<stop  offset="7.400000e-003" style="stop-color:#090909"/>
						<stop  offset="4.770000e-002" style="stop-color:#373737"/>
						<stop  offset="9.310000e-002" style="stop-color:#626262"/>
						<stop  offset="0.1419" style="stop-color:#888888"/>
						<stop  offset="0.195" style="stop-color:#A8A8A8"/>
						<stop  offset="0.2537" style="stop-color:#C4C4C4"/>
						<stop  offset="0.32" style="stop-color:#DADADA"/>
						<stop  offset="0.3974" style="stop-color:#EBEBEB"/>
						<stop  offset="0.4931" style="stop-color:#F6F6F6"/>
						<stop  offset="0.6274" style="stop-color:#FDFDFD"/>
						<stop  offset="1" style="stop-color:#FFFFFF"/>
					</linearGradient>
					<path fill="url(#SVGID_2_)" d="M4.1,25.3c-2.5-0.7-3.2-0.4-3.2-0.4c-0.5,0.2-0.9,0-0.9-0.6c0-0.5,0.4-1.2,0.9-1.5l1.8-1
						c0.5-0.3,1.3-0.3,1.7,0l1.8,1C6.6,23.1,7,23.8,7,24.3c0,0.5-0.2,1.3-0.4,1.7C6.6,26,6.6,26,4.1,25.3z"/>
				</g>
				<g opacity="0.33">

						<linearGradient id="SVGID_3_" gradientUnits="userSpaceOnUse" x1="2.3579" y1="572.3579" x2="3.5545" y2="570.121" gradientTransform="matrix(1 0 0 -1 4.003906e-002 594.4951)">
						<stop  offset="0" style="stop-color:#6B6B6B"/>
						<stop  offset="4.430000e-002" style="stop-color:#898989"/>
						<stop  offset="0.102" style="stop-color:#A8A8A8"/>
						<stop  offset="0.1675" style="stop-color:#C4C4C4"/>
						<stop  offset="0.2414" style="stop-color:#DADADA"/>
						<stop  offset="0.3278" style="stop-color:#EBEBEB"/>
						<stop  offset="0.4345" style="stop-color:#F6F6F6"/>
						<stop  offset="0.5843" style="stop-color:#FDFDFD"/>
						<stop  offset="1" style="stop-color:#FFFFFF"/>
					</linearGradient>
					<path fill="url(#SVGID_3_)" d="M4.1,25.3c-2.5-0.7-3.2-0.4-3.2-0.4c-0.5,0.2-0.9,0-0.9-0.6c0-0.5,0.4-1.2,0.9-1.5l1.8-1
						c0.5-0.3,1.3-0.3,1.7,0l1.8,1C6.6,23.1,7,23.8,7,24.3c0,0.5-0.2,1.3-0.4,1.7C6.6,26,6.6,26,4.1,25.3z"/>
				</g>
				<path fill="#FFFFFF" d="M3,21.9c0,0,0,0.1,0,0.1l-2.3,1.3c-0.1,0-0.1,0-0.1,0l0,0c0-0.1,0-0.1,0-0.2l2.3-1.3
					C2.9,21.9,3,21.9,3,21.9L3,21.9z"/>
			</g>

				<radialGradient id="SVGID_4_" cx="6.623" cy="566.563" r="6.747" gradientTransform="matrix(1 0 0 -1 4.003906e-002 594.4951)" gradientUnits="userSpaceOnUse">
				<stop  offset="0" style="stop-color:#029EDA"/>
				<stop  offset="1" style="stop-color:#0272B7"/>
			</radialGradient>
			<polygon fill="url(#SVGID_4_)" points="3.5,29.4 0,27.4 0,23.3 3.5,21.3 7,23.3 7,27.4 			"/>
			<g>

					<linearGradient id="SVGID_5_" gradientUnits="userSpaceOnUse" x1="2.3062" y1="572.3794" x2="3.4259" y2="570.2859" gradientTransform="matrix(1 0 0 -1 4.003906e-002 594.4951)">
					<stop  offset="0" style="stop-color:#000000"/>
					<stop  offset="7.400000e-003" style="stop-color:#090909"/>
					<stop  offset="4.770000e-002" style="stop-color:#373737"/>
					<stop  offset="9.310000e-002" style="stop-color:#626262"/>
					<stop  offset="0.1419" style="stop-color:#888888"/>
					<stop  offset="0.195" style="stop-color:#A8A8A8"/>
					<stop  offset="0.2537" style="stop-color:#C4C4C4"/>
					<stop  offset="0.32" style="stop-color:#DADADA"/>
					<stop  offset="0.3974" style="stop-color:#EBEBEB"/>
					<stop  offset="0.4931" style="stop-color:#F6F6F6"/>
					<stop  offset="0.6274" style="stop-color:#FDFDFD"/>
					<stop  offset="1" style="stop-color:#FFFFFF"/>
				</linearGradient>
				<path opacity="0.33" fill="url(#SVGID_5_)" enable-background="new    " d="M4.1,25.3c-2.5-0.7-4.1,0-4.1,0v-1.9l3.5-2l3.5,2
					v1.9C7,25.3,6.6,26,4.1,25.3z"/>

					<linearGradient id="SVGID_6_" gradientUnits="userSpaceOnUse" x1="2.3062" y1="572.3794" x2="3.4259" y2="570.2859" gradientTransform="matrix(1 0 0 -1 4.003906e-002 594.4951)">
					<stop  offset="0" style="stop-color:#6B6B6B"/>
					<stop  offset="4.430000e-002" style="stop-color:#898989"/>
					<stop  offset="0.102" style="stop-color:#A8A8A8"/>
					<stop  offset="0.1675" style="stop-color:#C4C4C4"/>
					<stop  offset="0.2414" style="stop-color:#DADADA"/>
					<stop  offset="0.3278" style="stop-color:#EBEBEB"/>
					<stop  offset="0.4345" style="stop-color:#F6F6F6"/>
					<stop  offset="0.5843" style="stop-color:#FDFDFD"/>
					<stop  offset="1" style="stop-color:#FFFFFF"/>
				</linearGradient>
				<path opacity="0.33" fill="url(#SVGID_6_)" enable-background="new    " d="M4.1,25.3c-2.5-0.7-4.1,0-4.1,0v-1.9l3.5-2l3.5,2
					v1.9C7,25.3,6.6,26,4.1,25.3z"/>
				<path fill="#FFFFFF" d="M3,21.9c0,0,0,0.1,0,0.1l-2.3,1.3c-0.1,0-0.1,0-0.1,0l0,0c0-0.1,0-0.1,0-0.2l2.3-1.3
					C2.9,21.9,3,21.9,3,21.9L3,21.9z"/>
			</g>
		</g>
		<g>

				<radialGradient id="SVGID_7_" cx="45.126" cy="558.7817" r="13.2532" gradientTransform="matrix(1 0 0 -1 4.003906e-002 594.4951)" gradientUnits="userSpaceOnUse">
				<stop  offset="0" style="stop-color:#E4CB6B"/>
				<stop  offset="1" style="stop-color:#DF834C"/>
			</radialGradient>
			<polygon fill="url(#SVGID_7_)" points="39.6,37.5 33.6,34 33.6,27 39.6,23.5 45.7,27 45.7,34 			"/>
			<g>

					<linearGradient id="SVGID_8_" gradientUnits="userSpaceOnUse" x1="37.5962" y1="569.5601" x2="39.5201" y2="565.9634" gradientTransform="matrix(1 0 0 -1 4.003906e-002 594.4951)">
					<stop  offset="0" style="stop-color:#000000"/>
					<stop  offset="7.400000e-003" style="stop-color:#090909"/>
					<stop  offset="4.770000e-002" style="stop-color:#373737"/>
					<stop  offset="9.310000e-002" style="stop-color:#626262"/>
					<stop  offset="0.1419" style="stop-color:#888888"/>
					<stop  offset="0.195" style="stop-color:#A8A8A8"/>
					<stop  offset="0.2537" style="stop-color:#C4C4C4"/>
					<stop  offset="0.32" style="stop-color:#DADADA"/>
					<stop  offset="0.3974" style="stop-color:#EBEBEB"/>
					<stop  offset="0.4931" style="stop-color:#F6F6F6"/>
					<stop  offset="0.6274" style="stop-color:#FDFDFD"/>
					<stop  offset="1" style="stop-color:#FFFFFF"/>
				</linearGradient>
				<path opacity="0.33" fill="url(#SVGID_8_)" enable-background="new    " d="M40.6,30.4c-4.3-1.3-7,0-7,0V27l6-3.5l6,3.5v3.3
					C45.7,30.4,44.9,31.6,40.6,30.4z"/>

					<linearGradient id="SVGID_9_" gradientUnits="userSpaceOnUse" x1="37.5962" y1="569.5601" x2="39.5201" y2="565.9634" gradientTransform="matrix(1 0 0 -1 4.003906e-002 594.4951)">
					<stop  offset="0" style="stop-color:#6B6B6B"/>
					<stop  offset="4.430000e-002" style="stop-color:#898989"/>
					<stop  offset="0.102" style="stop-color:#A8A8A8"/>
					<stop  offset="0.1675" style="stop-color:#C4C4C4"/>
					<stop  offset="0.2414" style="stop-color:#DADADA"/>
					<stop  offset="0.3278" style="stop-color:#EBEBEB"/>
					<stop  offset="0.4345" style="stop-color:#F6F6F6"/>
					<stop  offset="0.5843" style="stop-color:#FDFDFD"/>
					<stop  offset="1" style="stop-color:#FFFFFF"/>
				</linearGradient>
				<path opacity="0.33" fill="url(#SVGID_9_)" enable-background="new    " d="M40.6,30.4c-4.3-1.3-7,0-7,0V27l6-3.5l6,3.5v3.3
					C45.7,30.4,44.9,31.6,40.6,30.4z"/>
				<path fill="#FFFFFF" d="M38.8,24.6c0.1,0.1,0,0.2-0.1,0.3l-3.9,2.3c-0.1,0-0.2,0-0.3-0.1l0,0c0-0.1,0-0.2,0.1-0.3l3.9-2.3
					C38.6,24.5,38.8,24.5,38.8,24.6L38.8,24.6z"/>
			</g>
		</g>
		<g>

				<radialGradient id="SVGID_10_" cx="44.2891" cy="583.5483" r="8.1637" gradientTransform="matrix(1 0 0 -1 4.003906e-002 594.4951)" gradientUnits="userSpaceOnUse">
				<stop  offset="0" style="stop-color:#E7E8E8"/>
				<stop  offset="1" style="stop-color:#B6B8B9"/>
			</radialGradient>
			<polygon fill="url(#SVGID_10_)" points="39.6,13.9 33.6,10.5 33.6,3.5 39.6,0 45.7,3.5 45.7,10.5 			"/>
			<g>

					<linearGradient id="SVGID_11_" gradientUnits="userSpaceOnUse" x1="37.5952" y1="593.0962" x2="39.5197" y2="589.4984" gradientTransform="matrix(1 0 0 -1 4.003906e-002 594.4951)">
					<stop  offset="0" style="stop-color:#000000"/>
					<stop  offset="7.400000e-003" style="stop-color:#090909"/>
					<stop  offset="4.770000e-002" style="stop-color:#373737"/>
					<stop  offset="9.310000e-002" style="stop-color:#626262"/>
					<stop  offset="0.1419" style="stop-color:#888888"/>
					<stop  offset="0.195" style="stop-color:#A8A8A8"/>
					<stop  offset="0.2537" style="stop-color:#C4C4C4"/>
					<stop  offset="0.32" style="stop-color:#DADADA"/>
					<stop  offset="0.3974" style="stop-color:#EBEBEB"/>
					<stop  offset="0.4931" style="stop-color:#F6F6F6"/>
					<stop  offset="0.6274" style="stop-color:#FDFDFD"/>
					<stop  offset="1" style="stop-color:#FFFFFF"/>
				</linearGradient>
				<path opacity="0.33" fill="url(#SVGID_11_)" enable-background="new    " d="M40.6,6.8c-4.3-1.3-7,0-7,0V3.5l6-3.5l6,3.5v3.3
					C45.7,6.8,44.9,8.1,40.6,6.8z"/>

					<linearGradient id="SVGID_12_" gradientUnits="userSpaceOnUse" x1="37.5952" y1="593.0962" x2="39.5197" y2="589.4984" gradientTransform="matrix(1 0 0 -1 4.003906e-002 594.4951)">
					<stop  offset="0" style="stop-color:#6B6B6B"/>
					<stop  offset="4.430000e-002" style="stop-color:#898989"/>
					<stop  offset="0.102" style="stop-color:#A8A8A8"/>
					<stop  offset="0.1675" style="stop-color:#C4C4C4"/>
					<stop  offset="0.2414" style="stop-color:#DADADA"/>
					<stop  offset="0.3278" style="stop-color:#EBEBEB"/>
					<stop  offset="0.4345" style="stop-color:#F6F6F6"/>
					<stop  offset="0.5843" style="stop-color:#FDFDFD"/>
					<stop  offset="1" style="stop-color:#FFFFFF"/>
				</linearGradient>
				<path opacity="0.33" fill="url(#SVGID_12_)" enable-background="new    " d="M40.6,6.8c-4.3-1.3-7,0-7,0V3.5l6-3.5l6,3.5v3.3
					C45.7,6.8,44.9,8.1,40.6,6.8z"/>
				<path fill="#FFFFFF" d="M38.8,1.1c0.1,0.1,0,0.2-0.1,0.3l-3.9,2.3c-0.1,0-0.2,0-0.3-0.1l0,0c0-0.1,0-0.2,0.1-0.3L38.6,1
					C38.6,1,38.8,1,38.8,1.1L38.8,1.1z"/>
			</g>
		</g>
		<g>
			<g>

					<radialGradient id="SVGID_13_" cx="25.0449" cy="571.519" r="11.1362" gradientTransform="matrix(1 0 0 -1 4.003906e-002 594.4951)" gradientUnits="userSpaceOnUse">
					<stop  offset="0" style="stop-color:#029EDA"/>
					<stop  offset="1" style="stop-color:#0272B7"/>
				</radialGradient>
				<path fill="url(#SVGID_13_)" d="M20.5,25.2c-0.5,0.3-1.3,0.3-1.7,0l-4.3-2.5c-0.5-0.3-0.9-1-0.9-1.5v-5c0-0.5,0.4-1.2,0.9-1.5
					l4.3-2.5c0.5-0.3,1.3-0.3,1.7,0l4.3,2.5c0.5,0.3,0.9,1,0.9,1.5v5c0,0.5-0.4,1.2-0.9,1.5L20.5,25.2z"/>
			</g>
			<g>
				<g opacity="0.33">

						<linearGradient id="SVGID_14_" gradientUnits="userSpaceOnUse" x1="17.6782" y1="581.3071" x2="19.6895" y2="577.5469" gradientTransform="matrix(1 0 0 -1 4.003906e-002 594.4951)">
						<stop  offset="0" style="stop-color:#000000"/>
						<stop  offset="7.400000e-003" style="stop-color:#090909"/>
						<stop  offset="4.770000e-002" style="stop-color:#373737"/>
						<stop  offset="9.310000e-002" style="stop-color:#626262"/>
						<stop  offset="0.1419" style="stop-color:#888888"/>
						<stop  offset="0.195" style="stop-color:#A8A8A8"/>
						<stop  offset="0.2537" style="stop-color:#C4C4C4"/>
						<stop  offset="0.32" style="stop-color:#DADADA"/>
						<stop  offset="0.3974" style="stop-color:#EBEBEB"/>
						<stop  offset="0.4931" style="stop-color:#F6F6F6"/>
						<stop  offset="0.6274" style="stop-color:#FDFDFD"/>
						<stop  offset="1" style="stop-color:#FFFFFF"/>
					</linearGradient>
					<path fill="url(#SVGID_14_)" d="M20.7,18.6c-4.3-1.3-6.1-0.4-6.1-0.4c-0.5,0.2-0.9,0-0.9-0.6v-1.3c0-0.5,0.4-1.2,0.9-1.5
						l4.3-2.5c0.5-0.3,1.3-0.3,1.7,0l4.3,2.5c0.5,0.3,0.9,1,0.9,1.5v1.3c0,0.6-0.2,1.4-0.5,1.9C25.2,19.4,24.9,19.8,20.7,18.6z"/>
				</g>
				<g opacity="0.33">

						<linearGradient id="SVGID_15_" gradientUnits="userSpaceOnUse" x1="17.6782" y1="581.3071" x2="19.6895" y2="577.5469" gradientTransform="matrix(1 0 0 -1 4.003906e-002 594.4951)">
						<stop  offset="0" style="stop-color:#6B6B6B"/>
						<stop  offset="4.430000e-002" style="stop-color:#898989"/>
						<stop  offset="0.102" style="stop-color:#A8A8A8"/>
						<stop  offset="0.1675" style="stop-color:#C4C4C4"/>
						<stop  offset="0.2414" style="stop-color:#DADADA"/>
						<stop  offset="0.3278" style="stop-color:#EBEBEB"/>
						<stop  offset="0.4345" style="stop-color:#F6F6F6"/>
						<stop  offset="0.5843" style="stop-color:#FDFDFD"/>
						<stop  offset="1" style="stop-color:#FFFFFF"/>
					</linearGradient>
					<path fill="url(#SVGID_15_)" d="M20.7,18.6c-4.3-1.3-6.1-0.4-6.1-0.4c-0.5,0.2-0.9,0-0.9-0.6v-1.3c0-0.5,0.4-1.2,0.9-1.5
						l4.3-2.5c0.5-0.3,1.3-0.3,1.7,0l4.3,2.5c0.5,0.3,0.9,1,0.9,1.5v1.3c0,0.6-0.2,1.4-0.5,1.9C25.2,19.4,24.9,19.8,20.7,18.6z"/>
				</g>
				<path fill="#FFFFFF" d="M18.8,12.9c0.1,0.1,0,0.2-0.1,0.3l-3.9,2.3c-0.1,0.1-0.2,0-0.3-0.1l0,0c-0.1-0.1,0-0.2,0.1-0.3l3.9-2.3
					C18.7,12.7,18.8,12.8,18.8,12.9L18.8,12.9z"/>
			</g>

				<radialGradient id="SVGID_16_" cx="25.0449" cy="571.3315" r="11.596" gradientTransform="matrix(1 0 0 -1 4.003906e-002 594.4951)" gradientUnits="userSpaceOnUse">
				<stop  offset="0" style="stop-color:#029EDA"/>
				<stop  offset="1" style="stop-color:#0272B7"/>
			</radialGradient>
			<polygon fill="url(#SVGID_16_)" points="19.7,25.7 13.6,22.2 13.6,15.3 19.7,11.8 25.7,15.3 25.7,22.2 			"/>
			<g>

					<linearGradient id="SVGID_17_" gradientUnits="userSpaceOnUse" x1="17.6245" y1="581.3276" x2="19.5491" y2="577.7294" gradientTransform="matrix(1 0 0 -1 4.003906e-002 594.4951)">
					<stop  offset="0" style="stop-color:#000000"/>
					<stop  offset="7.400000e-003" style="stop-color:#090909"/>
					<stop  offset="4.770000e-002" style="stop-color:#373737"/>
					<stop  offset="9.310000e-002" style="stop-color:#626262"/>
					<stop  offset="0.1419" style="stop-color:#888888"/>
					<stop  offset="0.195" style="stop-color:#A8A8A8"/>
					<stop  offset="0.2537" style="stop-color:#C4C4C4"/>
					<stop  offset="0.32" style="stop-color:#DADADA"/>
					<stop  offset="0.3974" style="stop-color:#EBEBEB"/>
					<stop  offset="0.4931" style="stop-color:#F6F6F6"/>
					<stop  offset="0.6274" style="stop-color:#FDFDFD"/>
					<stop  offset="1" style="stop-color:#FFFFFF"/>
				</linearGradient>
				<path opacity="0.33" fill="url(#SVGID_17_)" enable-background="new    " d="M20.7,18.6c-4.3-1.3-7,0-7,0v-3.3l6-3.5l6,3.5v3.3
					C25.7,18.6,24.9,19.8,20.7,18.6z"/>

					<linearGradient id="SVGID_18_" gradientUnits="userSpaceOnUse" x1="17.6245" y1="581.3276" x2="19.5491" y2="577.7294" gradientTransform="matrix(1 0 0 -1 4.003906e-002 594.4951)">
					<stop  offset="0" style="stop-color:#6B6B6B"/>
					<stop  offset="4.430000e-002" style="stop-color:#898989"/>
					<stop  offset="0.102" style="stop-color:#A8A8A8"/>
					<stop  offset="0.1675" style="stop-color:#C4C4C4"/>
					<stop  offset="0.2414" style="stop-color:#DADADA"/>
					<stop  offset="0.3278" style="stop-color:#EBEBEB"/>
					<stop  offset="0.4345" style="stop-color:#F6F6F6"/>
					<stop  offset="0.5843" style="stop-color:#FDFDFD"/>
					<stop  offset="1" style="stop-color:#FFFFFF"/>
				</linearGradient>
				<path opacity="0.33" fill="url(#SVGID_18_)" enable-background="new    " d="M20.7,18.6c-4.3-1.3-7,0-7,0v-3.3l6-3.5l6,3.5v3.3
					C25.7,18.6,24.9,19.8,20.7,18.6z"/>
				<path fill="#FFFFFF" d="M18.8,12.9c0.1,0.1,0,0.2-0.1,0.3l-3.9,2.3c-0.1,0.1-0.2,0-0.3-0.1l0,0c-0.1-0.1,0-0.2,0.1-0.3l3.9-2.3
					C18.7,12.7,18.8,12.8,18.8,12.9L18.8,12.9z"/>
			</g>
		</g>
		<g>

				<radialGradient id="SVGID_19_" cx="36.2568" cy="572.0015" r="10.7681" gradientTransform="matrix(1 0 0 -1 4.003906e-002 594.4951)" gradientUnits="userSpaceOnUse">
				<stop  offset="0" style="stop-color:#A8C755"/>
				<stop  offset="1" style="stop-color:#069D4A"/>
			</radialGradient>
			<polygon fill="url(#SVGID_19_)" points="33.1,25.7 27,22.2 27,15.3 33.1,11.8 39.1,15.3 39.1,22.2 			"/>
			<g>

					<linearGradient id="SVGID_20_" gradientUnits="userSpaceOnUse" x1="31.0122" y1="581.3267" x2="32.9366" y2="577.7289" gradientTransform="matrix(1 0 0 -1 4.003906e-002 594.4951)">
					<stop  offset="0" style="stop-color:#000000"/>
					<stop  offset="7.400000e-003" style="stop-color:#090909"/>
					<stop  offset="4.770000e-002" style="stop-color:#373737"/>
					<stop  offset="9.310000e-002" style="stop-color:#626262"/>
					<stop  offset="0.1419" style="stop-color:#888888"/>
					<stop  offset="0.195" style="stop-color:#A8A8A8"/>
					<stop  offset="0.2537" style="stop-color:#C4C4C4"/>
					<stop  offset="0.32" style="stop-color:#DADADA"/>
					<stop  offset="0.3974" style="stop-color:#EBEBEB"/>
					<stop  offset="0.4931" style="stop-color:#F6F6F6"/>
					<stop  offset="0.6274" style="stop-color:#FDFDFD"/>
					<stop  offset="1" style="stop-color:#FFFFFF"/>
				</linearGradient>
				<path opacity="0.33" fill="url(#SVGID_20_)" enable-background="new    " d="M34.1,18.6c-4.3-1.3-7,0-7,0v-3.3l6-3.5l6,3.5v3.3
					C39.1,18.6,38.3,19.8,34.1,18.6z"/>

					<linearGradient id="SVGID_21_" gradientUnits="userSpaceOnUse" x1="31.0122" y1="581.3267" x2="32.9366" y2="577.7289" gradientTransform="matrix(1 0 0 -1 4.003906e-002 594.4951)">
					<stop  offset="0" style="stop-color:#6B6B6B"/>
					<stop  offset="4.430000e-002" style="stop-color:#898989"/>
					<stop  offset="0.102" style="stop-color:#A8A8A8"/>
					<stop  offset="0.1675" style="stop-color:#C4C4C4"/>
					<stop  offset="0.2414" style="stop-color:#DADADA"/>
					<stop  offset="0.3278" style="stop-color:#EBEBEB"/>
					<stop  offset="0.4345" style="stop-color:#F6F6F6"/>
					<stop  offset="0.5843" style="stop-color:#FDFDFD"/>
					<stop  offset="1" style="stop-color:#FFFFFF"/>
				</linearGradient>
				<path opacity="0.33" fill="url(#SVGID_21_)" enable-background="new    " d="M34.1,18.6c-4.3-1.3-7,0-7,0v-3.3l6-3.5l6,3.5v3.3
					C39.1,18.6,38.3,19.8,34.1,18.6z"/>
				<path fill="#FFFFFF" d="M32.2,12.9c0,0.1,0,0.2-0.1,0.3l-3.9,2.3c-0.1,0.1-0.2,0-0.3-0.1l0,0c-0.1-0.1,0-0.2,0.1-0.3l3.9-2.3
					C32.1,12.7,32.2,12.8,32.2,12.9L32.2,12.9z"/>
			</g>
		</g>
		<g>

				<radialGradient id="SVGID_22_" cx="29.5625" cy="559.4507" r="7.9267" gradientTransform="matrix(1 0 0 -1 4.003906e-002 594.4951)" gradientUnits="userSpaceOnUse">
				<stop  offset="0" style="stop-color:#E7E8E8"/>
				<stop  offset="1" style="stop-color:#B6B8B9"/>
			</radialGradient>
			<polygon fill="url(#SVGID_22_)" points="26.3,37.5 20.2,34 20.2,27 26.3,23.5 32.3,27 32.3,34 			"/>
			<g>

					<linearGradient id="SVGID_23_" gradientUnits="userSpaceOnUse" x1="24.2085" y1="569.5591" x2="26.1325" y2="565.9621" gradientTransform="matrix(1 0 0 -1 4.003906e-002 594.4951)">
					<stop  offset="0" style="stop-color:#000000"/>
					<stop  offset="7.400000e-003" style="stop-color:#090909"/>
					<stop  offset="4.770000e-002" style="stop-color:#373737"/>
					<stop  offset="9.310000e-002" style="stop-color:#626262"/>
					<stop  offset="0.1419" style="stop-color:#888888"/>
					<stop  offset="0.195" style="stop-color:#A8A8A8"/>
					<stop  offset="0.2537" style="stop-color:#C4C4C4"/>
					<stop  offset="0.32" style="stop-color:#DADADA"/>
					<stop  offset="0.3974" style="stop-color:#EBEBEB"/>
					<stop  offset="0.4931" style="stop-color:#F6F6F6"/>
					<stop  offset="0.6274" style="stop-color:#FDFDFD"/>
					<stop  offset="1" style="stop-color:#FFFFFF"/>
				</linearGradient>
				<path opacity="0.33" fill="url(#SVGID_23_)" enable-background="new    " d="M27.3,30.4c-4.3-1.3-7,0-7,0V27l6-3.5l6,3.5v3.3
					C32.3,30.4,31.5,31.6,27.3,30.4z"/>

					<linearGradient id="SVGID_24_" gradientUnits="userSpaceOnUse" x1="24.2085" y1="569.5591" x2="26.1325" y2="565.9621" gradientTransform="matrix(1 0 0 -1 4.003906e-002 594.4951)">
					<stop  offset="0" style="stop-color:#6B6B6B"/>
					<stop  offset="4.430000e-002" style="stop-color:#898989"/>
					<stop  offset="0.102" style="stop-color:#A8A8A8"/>
					<stop  offset="0.1675" style="stop-color:#C4C4C4"/>
					<stop  offset="0.2414" style="stop-color:#DADADA"/>
					<stop  offset="0.3278" style="stop-color:#EBEBEB"/>
					<stop  offset="0.4345" style="stop-color:#F6F6F6"/>
					<stop  offset="0.5843" style="stop-color:#FDFDFD"/>
					<stop  offset="1" style="stop-color:#FFFFFF"/>
				</linearGradient>
				<path opacity="0.33" fill="url(#SVGID_24_)" enable-background="new    " d="M27.3,30.4c-4.3-1.3-7,0-7,0V27l6-3.5l6,3.5v3.3
					C32.3,30.4,31.5,31.6,27.3,30.4z"/>
				<path fill="#FFFFFF" d="M25.4,24.6c0.1,0.1,0,0.2-0.1,0.3l-3.9,2.3c-0.1,0-0.2,0-0.3-0.1l0,0c-0.1-0.1,0-0.2,0.1-0.3l3.9-2.3
					C25.3,24.5,25.4,24.5,25.4,24.6L25.4,24.6z"/>
			</g>
		</g>
	</g>
</g>
</svg>