<?xml version="1.0" encoding="utf-8"?>
<!-- Generator: Adobe Illustrator 19.2.1, SVG Export Plug-In . SVG Version: 6.00 Build 0)  -->
<svg version="1.1" id="Layer_1" xmlns="http://www.w3.org/2000/svg" xmlns:xlink="http://www.w3.org/1999/xlink" x="0px" y="0px"
	 viewBox="0 0 715.2 202.2" style="enable-background:new 0 0 715.2 202.2;" xml:space="preserve">
<style type="text/css">
	.st0{fill:#D7D7D7;}
	.st1{fill:url(#oxi_1_);}
</style>
<title>logo</title>
<path id="y" class="st0" d="M714.7,44.2h-0.2l-6.6-6.6h-0.1c-4.6-4.6-12-4.7-16.7-0.1l0,0H691l-40.5,40.4l-40.7-40.7l0,0
	c-4.6-4.6-12.1-4.5-16.7,0.1l0,0H593l-6.5,6.7h-0.1c-0.9,0.9-0.9,2.5,0,3.4l0,0h0.2l6.4,6.4l0,0l45.3,45.3v47.2l0,0
	c0.1,6.5,5.4,11.7,11.9,11.7h9.5c1.3,0,2.3-1,2.4-2.3l0,0v-15l0,0V99.9l5.2-5.2l0,0l36.5-36.5l0,0l10.6-10.6h0.1
	c0.9-0.9,1-2.2,0.2-3.2"/>
<path id="a" class="st0" d="M581.7,95.6v-1.3c0-33.6-27.2-60.9-60.9-60.9c-33.6,0-60.9,27.2-60.9,60.9s27.2,60.9,60.9,60.9
	c13.5,0,26.6-4.5,37.2-12.7v4.3c0,6.5,5.3,11.8,11.8,11.8h9.6c1.3-0.1,2.3-1.1,2.3-2.4l0,0V141l0,0L581.7,95.6L581.7,95.6
	L581.7,95.6z M520.8,133.8c-21.9,0-39.6-17.7-39.6-39.6s17.7-39.6,39.6-39.6c21.9,0,39.6,17.7,39.6,39.6l0,0l0,0
	C560.4,116.1,542.7,133.8,520.8,133.8"/>
<path id="p" class="st0" d="M382.4,33.1c-33.6,0-60.9,27.3-60.9,60.9v0.4l0,0v95.8c0,6.5,5.3,11.8,11.8,11.8h9.6
	c1.3,0,2.4-1.1,2.4-2.4l0,0v-57.4c26.6,20.6,64.9,15.6,85.4-11s15.6-64.9-11-85.4C409.1,37.5,395.9,33.1,382.4,33.1 M382.4,133.6
	c-21.9,0-39.6-17.7-39.6-39.6s17.7-39.6,39.6-39.6S422,72.1,422,94S404.3,133.6,382.4,133.6L382.4,133.6"/>
<linearGradient id="oxi_1_" gradientUnits="userSpaceOnUse" x1="78.0687" y1="213.0687" x2="270.5127" y2="20.6248" gradientTransform="matrix(1 0 0 -1 0 204)">
	<stop  offset="0" style="stop-color:#D42329"/>
	<stop  offset="1.811961e-002" style="stop-color:#D83927"/>
	<stop  offset="4.576266e-002" style="stop-color:#DE5424"/>
	<stop  offset="7.757501e-002" style="stop-color:#E26A22"/>
	<stop  offset="0.1147" style="stop-color:#E67B21"/>
	<stop  offset="0.1606" style="stop-color:#E88620"/>
	<stop  offset="0.2251" style="stop-color:#EA8D1F"/>
	<stop  offset="0.4039" style="stop-color:#EA8F1F"/>
	<stop  offset="1" style="stop-color:#FCE217"/>
</linearGradient>
<path id="oxi" class="st1" d="M21.3,94.2c0-21.9,17.7-39.6,39.6-39.6s39.6,17.7,39.6,39.6s-17.7,39.6-39.6,39.6l0,0
	C39,133.8,21.3,116.1,21.3,94.2L21.3,94.2 M0,94.2c0,33.6,27.3,60.9,60.9,60.9s60.9-27.3,60.9-60.9S94.5,33.3,60.9,33.3l0,0
	C27.3,33.3,0,60.6,0,94.2 M136.5,37.3l-0.4,0.5l-6.2,6.2h-0.1c-0.9,0.9-0.9,2.5,0,3.4l0,0h0.2l10.5,10.8l0,0l94.6,94.5h0.1
	c4.7,4,11.7,3.7,16-0.7v-0.2l6.5-6.5h0.1c0.9-0.9,0.9-2.5,0-3.4l0,0h-0.2L247,131.3l0,0l-93.8-94.1l0,0
	C148.6,32.6,141.1,32.7,136.5,37.3L136.5,37.3L136.5,37.3 M238.9,32.8V33l-6.3,6.3l-0.2,0.2h-0.1l-32.9,32.8l16.8,16.8l32.7-32.7
	h0.1c4.6-4.6,4.6-12.1,0-16.7l0,0h-0.1l-6.5-6.5h-0.1c-0.9-0.9-2.5-0.9-3.4,0l0,0l0,0 M139.8,131.9L139.8,131.9
	c-3.9,4.7-3.6,11.6,0.7,15.9l0,0l6.7,6.7h0.1c0.9,0.9,2.5,0.9,3.4,0l0,0l0,0v-0.2l10.6-10.6l0,0l26.8-26.8l-16.8-16.8L139.8,131.9z
	 M276.8,11.6c0,6.5,5.3,11.8,11.8,11.8s11.8-5.3,11.8-11.8s-5.3-11.8-11.8-11.8C282.1-0.2,276.8,5.1,276.8,11.6 M288.5,33.1H279
	c-1.3,0-2.4,1.1-2.4,2.4l0,0v9.2l0,0v97.9l0,0v0.3c-0.1,6.5,5.2,11.8,11.7,11.9l0,0h9.9c1.3-0.1,2.3-1.1,2.3-2.4v-0.2l0,0V44.8l0,0
	C300.4,38.3,295.1,33.1,288.5,33.1L288.5,33.1"/>
</svg>
