<svg id="Layer_1" data-name="Layer 1" xmlns="http://www.w3.org/2000/svg" viewBox="0 0 116.69 33"><defs><style>.cls-1{fill:#fa8b23;}</style></defs><title>oxipay_logo</title><path class="cls-1" d="M62.39,5.44a9.94,9.94,0,0,0-9.94,9.93s0,0,0,.06h0V31s0,0,0,0A1.93,1.93,0,0,0,54.38,33h1.56a0.39,0.39,0,0,0,.39-0.39h0V23.24a9.93,9.93,0,1,0,6.06-17.8m0,16.39a6.46,6.46,0,1,1,6.46-6.46,6.46,6.46,0,0,1-6.46,6.46"/><path class="cls-1" d="M94.91,15.63c0-.07,0-0.14,0-0.22A9.94,9.94,0,1,0,91,23.28v0.65s0,0,0,0A1.93,1.93,0,0,0,93,25.9h1.56a0.39,0.39,0,0,0,.37-0.39h0V23h0V15.63ZM85,21.87a6.46,6.46,0,1,1,6.46-6.46A6.46,6.46,0,0,1,85,21.87"/><path class="cls-1" d="M116.61,7.25h0l0,0h0l-1.08-1.08h0a1.93,1.93,0,0,0-2.72,0h0l-6.61,6.62L99.5,6.1h0a1.93,1.93,0,0,0-2.72,0h0L95.69,7.2h0a0.39,0.39,0,0,0,0,.55l0,0,1,1h0l7.39,7.39v7.71h0a1.94,1.94,0,0,0,1.93,1.9h1.55a0.39,0.39,0,0,0,.39-0.38h0V23h0V16.33l0.85-.85h0l6-6h0l1.73-1.73h0l0,0a0.39,0.39,0,0,0,0-.52"/><path class="cls-1" d="M3.48,15.4a6.46,6.46,0,1,1,6.46,6.46A6.46,6.46,0,0,1,3.48,15.4M0,15.4A9.94,9.94,0,1,0,9.94,5.46,9.94,9.94,0,0,0,0,15.4"/><path class="cls-1" d="M22.28,6.12l-0.07.08-1,1h0a0.39,0.39,0,0,0,0,.55l0,0,1.72,1.72h0L38.36,24.95h0a1.93,1.93,0,0,0,2.6-.12l0,0,1.06-1.06h0a0.39,0.39,0,0,0,0-.55l0,0-1.72-1.72h0L25,6.1h0a1.93,1.93,0,0,0-2.72,0"/><path class="cls-1" d="M39,5.38l0,0-1,1,0,0,0,0h0l-5.33,5.33,2.74,2.74,5.33-5.33h0l0,0a1.93,1.93,0,0,0,0-2.73h0L39.54,5.4h0v0a0.39,0.39,0,0,0-.55,0"/><path class="cls-1" d="M22.81,21.55h0a1.93,1.93,0,0,0,.11,2.6h0L24,25.24h0a0.39,0.39,0,0,0,.55,0l0,0,1.72-1.72h0l4.38-4.38L28,16.39Z"/><path class="cls-1" d="M45.16,1.93A1.93,1.93,0,1,0,47.09,0a1.93,1.93,0,0,0-1.93,1.93"/><path class="cls-1" d="M47.08,5.43H45.53a0.39,0.39,0,0,0-.38.39h0V7.33h0v16h0s0,0,0,.05a1.93,1.93,0,0,0,1.93,1.93h1.58A0.39,0.39,0,0,0,49,24.91v0h0V7.34h0a1.94,1.94,0,0,0-1.94-1.91h0"/></svg>